<?xml version="1.0" standalone="no"?>
<!DOCTYPE svg PUBLIC "-//W3C//DTD SVG 20010904//EN"
 "http://www.w3.org/TR/2001/REC-SVG-20010904/DTD/svg10.dtd">
<svg version="1.0" xmlns="http://www.w3.org/2000/svg"
 width="16.000000pt" height="16.000000pt" viewBox="0 0 16.000000 16.000000"
 preserveAspectRatio="xMidYMid meet">
<metadata>
Created by potrace 1.11, written by Peter Selinger 2001-2013
</metadata>
<g transform="translate(0.000000,16.000000) scale(0.001481,-0.001481)"
fill="#000000" stroke="none">
<path d="M5377 9935 c-4319 -722 -4801 -804 -4820 -824 l-22 -22 0 -3694 0
-3694 22 -22 c19 -20 496 -101 4820 -824 2639 -441 4799 -798 4801 -794 2 4
10 5 18 2 8 -3 14 0 14 7 0 6 5 8 10 5 6 -3 10 -2 10 4 0 5 8 17 18 27 16 17
17 282 17 5293 l0 5276 -22 22 c-12 12 -24 19 -27 16 -3 -4 -6 -1 -6 6 0 7 -6
11 -14 8 -8 -3 -16 -2 -18 2 -2 4 -2162 -353 -4801 -794z"/>
</g>
</svg>
